<svg id="Camada_1" data-name="Camada 1" xmlns="http://www.w3.org/2000/svg" viewBox="0 0 1143.43 129.16"><defs><style>.cls-1{fill:#231f20;}.cls-2{fill:#fff200;}</style></defs><title>BATTLE OF POWER-logo</title><path class="cls-1" d="M527.38,63.28,511.91,36.85l-5.86,3.44L495.79,30,485.53,40.29l-5.86-3.44L464.2,63.28a36.64,36.64,0,1,0,63.18,0Z"/><path class="cls-1" d="M527.38,54.28,511.91,27.85l-5.86,3.44L495.79,21,485.53,31.29l-5.86-3.44L464.2,54.28a36.64,36.64,0,1,0,63.18,0Z"/><path class="cls-1" d="M527.38,45.28,511.91,18.85l-5.86,3.44L495.79,12,485.53,22.29l-5.86-3.44L464.2,45.28a36.64,36.64,0,1,0,63.18,0Z"/><path class="cls-1" d="M56,48.85q19.29,0,19.29,19.29V72q0,7.09-2.62,11.57Q75.3,88,75.29,95.14V99q0,19.29-19.29,19.28H2V48.85Zm0,15.43H17.43V75.85H56c2.58,0,3.86-1.28,3.86-3.85V68.14C59.86,65.57,58.58,64.28,56,64.28ZM17.43,75.85v27H56c2.58,0,3.86-1.28,3.86-3.85V95.14c0-2.57-1.28-3.86-3.86-3.86H25.15Z"/><path class="cls-1" d="M106.07,118.28l-7.56-15.12-7.06,15.12h-17L111.86,38l37.46,80.31Zm-7.4-15.43h26.38L111.86,74.54Z"/><path class="cls-1" d="M209,48.85l-7.71,15.43H176.2v54H160.77v-54H131.84V48.85Z"/><path class="cls-1" d="M288.41,48.85,280.7,64.28H255.63v54H240.2v-54H211.27V48.85Z"/><path class="cls-1" d="M306.12,102.85h50.15l-7.72,15.43H290.69V48.85h15.43Z"/><path class="cls-1" d="M435.69,48.85,428,64.28H374V75.85h54l-7.72,15.43H374v11.57h57.86v15.43H358.54V48.85Z"/><path class="cls-1" d="M612.78,48.85V64.28H554.92V75.85h57.86V91.28H554.92v27H539.49V48.85Z"/><path class="cls-1" d="M694.1,48.85q19.29,0,19.29,19.29V72q0,19.27-19.29,19.28H655.53v30.86l-15.43-7.71V48.85Zm0,15.43H655.53V75.85H694.1Q698,75.85,698,72V68.14Q698,64.29,694.1,64.28Z"/><path class="cls-1" d="M737.34,48.85h34.72q19.28,0,19.28,19.29V99q0,19.29-19.28,19.28H737.34q-19.29,0-19.29-19.28V68.14Q718.05,48.85,737.34,48.85Zm34.72,15.43H737.34q-3.86,0-3.86,3.86V99q0,3.85,3.86,3.85h34.72q3.86,0,3.85-3.85V68.14Q775.91,64.29,772.06,64.28Z"/><path class="cls-1" d="M846.47,91.94l-17.36,37.22L791.65,48.85H808.7l20.41,43.74,17.36-37.22,17.36,37.22,20.4-43.74h17l-37.45,80.31Z"/><path class="cls-1" d="M980.71,48.85,973,64.28H919V75.85h54l-7.71,15.43H919v11.57h57.86v15.43H903.56V48.85Z"/><path class="cls-1" d="M998.41,75.85v46.29L983,114.43V48.85h54q19.27,0,19.28,19.29V72q0,15.31-12.15,18.47l16,27.81h-17.78l-15.55-27h-20.67Zm0,0H1037q3.85,0,3.85-3.85V68.14q0-3.86-3.85-3.86H998.41Z"/><path class="cls-1" d="M1085.55,48.85h57.86l-7.71,15.43h-50.15q-3.85,0-3.86,3.86V72q0,3.85,3.86,3.85h34.72q19.27,0,19.28,19.29V99q0,19.29-19.28,19.28h-57.86l7.71-15.43h50.15q3.86,0,3.85-3.85V95.14q0-3.86-3.85-3.86h-34.72q-19.29,0-19.29-19.28V68.14Q1066.26,48.85,1085.55,48.85Z"/><path class="cls-1" d="M56,33.85q19.29,0,19.29,19.29V57q0,7.09-2.62,11.57Q75.3,73,75.29,80.14V84q0,19.29-19.29,19.28H2V33.85Zm0,15.43H17.43V60.85H56c2.58,0,3.86-1.28,3.86-3.85V53.14C59.86,50.57,58.58,49.28,56,49.28ZM17.43,60.85v27H56c2.58,0,3.86-1.28,3.86-3.85V80.14c0-2.57-1.28-3.86-3.86-3.86H25.15Z"/><path class="cls-1" d="M106.07,103.28,98.51,88.16l-7.06,15.12h-17L111.86,23l37.46,80.31Zm-7.4-15.43h26.38L111.86,59.54Z"/><path class="cls-1" d="M209,33.85l-7.71,15.43H176.2v54H160.77v-54H131.84V33.85Z"/><path class="cls-1" d="M288.41,33.85,280.7,49.28H255.63v54H240.2v-54H211.27V33.85Z"/><path class="cls-1" d="M306.12,87.85h50.15l-7.72,15.43H290.69V33.85h15.43Z"/><path class="cls-1" d="M435.69,33.85,428,49.28H374V60.85h54l-7.72,15.43H374V87.85h57.86v15.43H358.54V33.85Z"/><path class="cls-1" d="M612.78,33.85V49.28H554.92V60.85h57.86V76.28H554.92v27H539.49V33.85Z"/><path class="cls-1" d="M694.1,33.85q19.29,0,19.29,19.29V57q0,19.27-19.29,19.28H655.53v30.86L640.1,99.43V33.85Zm0,15.43H655.53V60.85H694.1Q698,60.85,698,57V53.14Q698,49.29,694.1,49.28Z"/><path class="cls-1" d="M737.34,33.85h34.72q19.28,0,19.28,19.29V84q0,19.29-19.28,19.28H737.34q-19.29,0-19.29-19.28V53.14Q718.05,33.85,737.34,33.85Zm34.72,15.43H737.34q-3.86,0-3.86,3.86V84q0,3.85,3.86,3.85h34.72q3.86,0,3.85-3.85V53.14Q775.91,49.29,772.06,49.28Z"/><path class="cls-1" d="M846.47,76.94l-17.36,37.22L791.65,33.85H808.7l20.41,43.74,17.36-37.22,17.36,37.22,20.4-43.74h17l-37.45,80.31Z"/><path class="cls-1" d="M980.71,33.85,973,49.28H919V60.85h54l-7.71,15.43H919V87.85h57.86v15.43H903.56V33.85Z"/><path class="cls-1" d="M998.41,60.85v46.29L983,99.43V33.85h54q19.27,0,19.28,19.29V57q0,15.31-12.15,18.47l16,27.81h-17.78l-15.55-27h-20.67Zm0,0H1037q3.85,0,3.85-3.85V53.14q0-3.86-3.85-3.86H998.41Z"/><path class="cls-1" d="M1085.55,33.85h57.86l-7.71,15.43h-50.15q-3.85,0-3.86,3.86V57q0,3.86,3.86,3.85h34.72q19.27,0,19.28,19.29V84q0,19.29-19.28,19.28h-57.86l7.71-15.43h50.15q3.86,0,3.85-3.85V80.14q0-3.86-3.85-3.86h-34.72q-19.29,0-19.29-19.28V53.14Q1066.26,33.85,1085.55,33.85Z"/><path class="cls-1" d="M56,21.85q19.29,0,19.29,19.29V45q0,7.09-2.62,11.57Q75.3,61,75.29,68.14V72q0,19.29-19.29,19.28H2V21.85Zm0,15.43H17.43V48.85H56c2.58,0,3.86-1.28,3.86-3.85V41.14C59.86,38.57,58.58,37.28,56,37.28ZM17.43,48.85v27H56c2.58,0,3.86-1.28,3.86-3.85V68.14c0-2.57-1.28-3.86-3.86-3.86H25.15Z"/><path class="cls-1" d="M106.07,91.28,98.51,76.16,91.45,91.28h-17L111.86,11l37.46,80.31Zm-7.4-15.43h26.38L111.86,47.54Z"/><path class="cls-1" d="M209,21.85l-7.71,15.43H176.2v54H160.77v-54H131.84V21.85Z"/><path class="cls-1" d="M288.41,21.85,280.7,37.28H255.63v54H240.2v-54H211.27V21.85Z"/><path class="cls-1" d="M306.12,75.85h50.15l-7.72,15.43H290.69V21.85h15.43Z"/><path class="cls-1" d="M435.69,21.85,428,37.28H374V48.85h54l-7.72,15.43H374V75.85h57.86V91.28H358.54V21.85Z"/><path class="cls-1" d="M612.78,21.85V37.28H554.92V48.85h57.86V64.28H554.92v27H539.49V21.85Z"/><path class="cls-1" d="M694.1,21.85q19.29,0,19.29,19.29V45q0,19.28-19.29,19.28H655.53V95.14L640.1,87.43V21.85Zm0,15.43H655.53V48.85H694.1Q698,48.85,698,45V41.14Q698,37.28,694.1,37.28Z"/><path class="cls-1" d="M737.34,21.85h34.72q19.28,0,19.28,19.29V72q0,19.29-19.28,19.28H737.34q-19.29,0-19.29-19.28V41.14Q718.05,21.85,737.34,21.85Zm34.72,15.43H737.34q-3.86,0-3.86,3.86V72q0,3.85,3.86,3.85h34.72q3.86,0,3.85-3.85V41.14Q775.91,37.28,772.06,37.28Z"/><path class="cls-1" d="M846.47,64.94l-17.36,37.22L791.65,21.85H808.7l20.41,43.74,17.36-37.22,17.36,37.22,20.4-43.74h17l-37.45,80.31Z"/><path class="cls-1" d="M980.71,21.85,973,37.28H919V48.85h54l-7.71,15.43H919V75.85h57.86V91.28H903.56V21.85Z"/><path class="cls-1" d="M998.41,48.85V95.14L983,87.43V21.85h54q19.27,0,19.28,19.29V45q0,15.31-12.15,18.47l16,27.81h-17.78l-15.55-27h-20.67Zm0,0H1037q3.85,0,3.85-3.85V41.14q0-3.86-3.85-3.86H998.41Z"/><path class="cls-1" d="M1085.55,21.85h57.86l-7.71,15.43h-50.15q-3.85,0-3.86,3.86V45q0,3.86,3.86,3.85h34.72q19.27,0,19.28,19.29V72q0,19.29-19.28,19.28h-57.86l7.71-15.43h50.15q3.86,0,3.85-3.85V68.14q0-3.86-3.85-3.86h-34.72q-19.29,0-19.29-19.28V41.14Q1066.26,21.85,1085.55,21.85Z"/><path class="cls-2" d="M55,10.85q19.29,0,19.29,19.29V34q0,7.09-2.62,11.57Q74.3,50,74.29,57.14V61q0,19.29-19.29,19.28H1V10.85Zm0,15.43H16.43V37.85H55c2.58,0,3.86-1.28,3.86-3.85V30.14C58.86,27.57,57.58,26.28,55,26.28ZM16.43,37.85v27H55c2.58,0,3.86-1.28,3.86-3.85V57.14c0-2.57-1.28-3.86-3.86-3.86H24.15Z"/><path class="cls-2" d="M105.07,80.28,97.51,65.16,90.45,80.28h-17L110.86,0l37.46,80.31Zm-7.4-15.43h26.38L110.86,36.54Z"/><path class="cls-2" d="M208,10.85l-7.71,15.43H175.2v54H159.77v-54H130.84V10.85Z"/><path class="cls-2" d="M287.41,10.85,279.7,26.28H254.63v54H239.2v-54H210.27V10.85Z"/><path class="cls-2" d="M305.12,64.85h50.15l-7.72,15.43H289.69V10.85h15.43Z"/><path class="cls-2" d="M434.69,10.85,427,26.28H373V37.85h54l-7.72,15.43H373V64.85h57.86V80.28H357.54V10.85Z"/><path class="cls-2" d="M611.78,10.85V26.28H553.92V37.85h57.86V53.28H553.92v27H538.49V10.85Z"/><path class="cls-2" d="M693.1,10.85q19.29,0,19.29,19.29V34q0,19.28-19.29,19.28H654.53V84.14L639.1,76.43V10.85Zm0,15.43H654.53V37.85H693.1Q697,37.85,697,34V30.14Q697,26.29,693.1,26.28Z"/><path class="cls-2" d="M736.34,10.85h34.72q19.28,0,19.28,19.29V61q0,19.29-19.28,19.28H736.34q-19.29,0-19.29-19.28V30.14Q717.05,10.85,736.34,10.85Zm34.72,15.43H736.34q-3.86,0-3.86,3.86V61q0,3.86,3.86,3.85h34.72q3.86,0,3.85-3.85V30.14Q774.91,26.29,771.06,26.28Z"/><path class="cls-2" d="M845.47,53.94,828.11,91.16,790.65,10.85H807.7l20.41,43.74,17.36-37.22,17.36,37.22,20.4-43.74h17L862.83,91.16Z"/><path class="cls-2" d="M979.71,10.85,972,26.28H918V37.85h54l-7.71,15.43H918V64.85h57.86V80.28H902.56V10.85Z"/><path class="cls-2" d="M997.41,37.85V84.14L982,76.43V10.85h54q19.27,0,19.28,19.29V34q0,15.31-12.15,18.47l16,27.81h-17.78l-15.55-27h-20.67Zm0,0H1036q3.85,0,3.85-3.85V30.14q0-3.86-3.85-3.86H997.41Z"/><path class="cls-2" d="M1084.55,10.85h57.86l-7.71,15.43h-50.15q-3.85,0-3.86,3.86V34q0,3.86,3.86,3.85h34.72q19.27,0,19.28,19.29V61q0,19.29-19.28,19.28h-57.86l7.71-15.43h50.15q3.86,0,3.85-3.85V57.14q0-3.86-3.85-3.86h-34.72q-19.29,0-19.29-19.28V30.14Q1065.26,10.85,1084.55,10.85Z"/><path class="cls-1" d="M521.28,52.85A26.27,26.27,0,1,1,495,26.58,26.3,26.3,0,0,1,521.28,52.85Z"/><path class="cls-2" d="M478.6,56.72a3.46,3.46,0,0,0,3.46-3.45V44.63H475.6a21,21,0,0,0-1.67,8.22,21.42,21.42,0,0,0,.36,3.87Z"/><path class="cls-2" d="M497.61,44.63v1.72a3.46,3.46,0,0,0,3.45,3.46h4.84V65.36H495a3.46,3.46,0,0,0-3.46,3.46v4.83a21.93,21.93,0,0,0,3.46.28,21.08,21.08,0,0,0,19.41-29.3Z"/><path class="cls-2" d="M478.76,39.44h8.48V53.27a8.66,8.66,0,0,1-8.64,8.64H476a21.25,21.25,0,0,0,10.4,10.17V68.82A8.65,8.65,0,0,1,495,60.18h5.7V55a8.66,8.66,0,0,1-8.3-8.64V39.44h18.85a21.06,21.06,0,0,0-32.51,0Z"/><path class="cls-2" d="M527.38,34.28,511.91,7.85l-5.86,3.44L495.79,1,485.53,11.29l-5.86-3.44L464.2,34.28a36.64,36.64,0,1,0,63.18,0Zm-6.1,18.57A26.27,26.27,0,1,1,495,26.58,26.3,26.3,0,0,1,521.28,52.85Z"/><path class="cls-2" d="M486.7,97.7a7,7,0,0,0-7,7v2.36a1.47,1.47,0,0,0,1.47,1.48h2.37a7,7,0,0,0,7-7v-.89h1.79V111a7,7,0,0,0,7,7h2.37a1.47,1.47,0,0,0,1.47-1.47v-2.36a7,7,0,0,0-7-7h-.89V94.34H497v.9a7,7,0,0,0,7,7h2.37a1.47,1.47,0,0,0,1.47-1.47V98.39a7,7,0,0,0-7-7h-5.62V88.34h-2.94V97.7Zm.89,3.84a4,4,0,0,1-4,4h-.9v-.89a4.05,4.05,0,0,1,4.05-4h.89Zm12.4-7.2h.89a4.05,4.05,0,0,1,4,4v.89H504a4,4,0,0,1-4-4Zm-4.73,15.76h.89a4.06,4.06,0,0,1,4.05,4.05V115h-.9a4.05,4.05,0,0,1-4-4.05Z"/></svg>