<svg id="Camada_1" data-name="Camada 1" xmlns="http://www.w3.org/2000/svg" viewBox="0 0 1158.11 91.28"><defs><style>.cls-1{fill:#fff;}.cls-2{fill:#231f20;}</style></defs><title>BATTLE OF POWER-logo-gameboard</title><path class="cls-1" d="M55,10.85q19.29,0,19.29,19.29V34q0,7.09-2.62,11.57Q74.3,50,74.29,57.14V61q0,19.29-19.29,19.28H1V10.85Zm0,15.43H16.43V37.85H55c2.58,0,3.86-1.28,3.86-3.85V30.14C58.86,27.57,57.58,26.28,55,26.28ZM16.43,37.85v27H55c2.58,0,3.86-1.29,3.86-3.86V57.14c0-2.57-1.28-3.86-3.86-3.86H24.14Z"/><path class="cls-1" d="M104.07,80.28,96.51,65.16,89.45,80.28h-17L109.86,0l37.46,80.31Zm-7.4-15.42h26.38L109.86,36.54Z"/><path class="cls-1" d="M207,10.85l-7.72,15.43H174.2v54H158.77v-54H129.84V10.85Z"/><path class="cls-1" d="M286.41,10.85,278.7,26.28H253.63v54H238.2v-54H209.27V10.85Z"/><path class="cls-1" d="M304.12,64.86h50.15l-7.72,15.42H288.69V10.85h15.43Z"/><path class="cls-1" d="M433.69,10.85,426,26.28H372V37.85h54l-7.71,15.43H372V64.86h57.86V80.28H356.54V10.85Z"/><path class="cls-1" d="M476.43,10.85h34.72q19.27,0,19.28,19.29V61q0,19.29-19.28,19.28H476.43q-19.29,0-19.29-19.28V30.14Q457.14,10.85,476.43,10.85Zm34.72,15.43H476.43q-3.85,0-3.86,3.86V61q0,3.86,3.86,3.86h34.72Q515,64.86,515,61V30.14Q515,26.29,511.15,26.28Z"/><path class="cls-2" d="M621.78,10.85V26.28H563.92V37.85h57.86V53.28H563.92v27H548.49V10.85Z"/><path class="cls-2" d="M703.1,10.85q19.29,0,19.29,19.29V34q0,19.28-19.29,19.28H664.52V84.14L649.1,76.43V10.85Zm0,15.43H664.52V37.85H703.1Q707,37.85,707,34V30.14Q707,26.29,703.1,26.28Z"/><path class="cls-2" d="M746.34,10.85h34.72q19.28,0,19.28,19.29V61q0,19.29-19.28,19.28H746.34q-19.29,0-19.29-19.28V30.14Q727.05,10.85,746.34,10.85Zm34.72,15.43H746.34q-3.86,0-3.86,3.86V61q0,3.86,3.86,3.86h34.72q3.86,0,3.85-3.86V30.14Q784.91,26.29,781.06,26.28Z"/><path class="cls-2" d="M855.47,53.94,838.11,91.16,800.65,10.85H817.7l20.41,43.74,17.36-37.22,17.36,37.22,20.4-43.74h17L872.83,91.16Z"/><path class="cls-2" d="M989.71,10.85,982,26.28H928V37.85h54l-7.71,15.43H928V64.86h57.86V80.28H912.56V10.85Z"/><path class="cls-2" d="M1007.41,37.85V84.14L992,76.43V10.85h54q19.29,0,19.29,19.29V34q0,15.31-12.15,18.47l16,27.81h-17.78l-15.55-27h-20.67Zm0,0H1046c2.58,0,3.86-1.28,3.86-3.85V30.14c0-2.57-1.28-3.86-3.86-3.86h-38.57Z"/><path class="cls-2" d="M1094.55,10.85h57.86l-7.71,15.43h-50.15q-3.85,0-3.86,3.86V34q0,3.86,3.86,3.85h34.72q19.27,0,19.28,19.29V61q0,19.29-19.28,19.28h-57.86l7.71-15.42h50.15q3.86,0,3.85-3.86V57.14q0-3.86-3.85-3.86h-34.72q-19.29,0-19.29-19.28V30.14Q1075.26,10.85,1094.55,10.85Z"/></svg>