<svg id="Camada_1" data-name="Camada 1" xmlns="http://www.w3.org/2000/svg" viewBox="0 0 1142.43 91.28"><defs><style>.cls-1{fill:#fff;}.cls-2{fill:#231f20;}</style></defs><title>BATTLE OF POWER</title><path class="cls-1" d="M54,10.85q19.29,0,19.29,19.29V34q0,7.09-2.62,11.57Q73.3,50,73.29,57.14V61q0,19.29-19.29,19.28H0V10.85Zm0,15.43H15.43V37.85H54c2.58,0,3.86-1.28,3.86-3.85V30.14C57.86,27.57,56.58,26.28,54,26.28ZM15.43,37.85v27H54c2.58,0,3.86-1.29,3.86-3.86V57.14c0-2.57-1.28-3.86-3.86-3.86H23.14Z"/><path class="cls-1" d="M104.07,80.28,96.51,65.16,89.45,80.28h-17L109.86,0l37.46,80.31Zm-7.4-15.42h26.38L109.86,36.54Z"/><path class="cls-1" d="M207,10.85l-7.72,15.43H174.2v54H158.77v-54H129.84V10.85Z"/><path class="cls-1" d="M286.41,10.85,278.7,26.28H253.63v54H238.2v-54H209.27V10.85Z"/><path class="cls-1" d="M304.12,64.86h50.15l-7.72,15.42H288.69V10.85h15.43Z"/><path class="cls-1" d="M433.69,10.85,426,26.28H372V37.85h54l-7.71,15.43H372V64.86h57.86V80.28H356.54V10.85Z"/><path class="cls-1" d="M476.43,10.85h34.72q19.27,0,19.28,19.29V61q0,19.29-19.28,19.28H476.43q-19.29,0-19.29-19.28V30.14Q457.14,10.85,476.43,10.85Zm34.72,15.43H476.43q-3.85,0-3.86,3.86V61q0,3.86,3.86,3.86h34.72Q515,64.86,515,61V30.14Q515,26.29,511.15,26.28Z"/><path class="cls-2" d="M610.78,10.85V26.28H552.92V37.85h57.86V53.28H552.92v27H537.49V10.85Z"/><path class="cls-2" d="M692.1,10.85q19.29,0,19.29,19.29V34q0,19.28-19.29,19.28H653.52V84.14L638.1,76.43V10.85Zm0,15.43H653.52V37.85H692.1Q696,37.85,696,34V30.14Q696,26.29,692.1,26.28Z"/><path class="cls-2" d="M735.34,10.85h34.72q19.28,0,19.28,19.29V61q0,19.29-19.28,19.28H735.34q-19.29,0-19.29-19.28V30.14Q716.05,10.85,735.34,10.85Zm34.72,15.43H735.34q-3.86,0-3.86,3.86V61q0,3.86,3.86,3.86h34.72q3.86,0,3.85-3.86V30.14Q773.91,26.29,770.06,26.28Z"/><path class="cls-2" d="M844.47,53.94,827.11,91.16,789.65,10.85H806.7l20.41,43.74,17.36-37.22,17.36,37.22,20.4-43.74h17L861.83,91.16Z"/><path class="cls-2" d="M978.71,10.85,971,26.28H917V37.85h54l-7.71,15.43H917V64.86h57.86V80.28H901.56V10.85Z"/><path class="cls-2" d="M996.41,37.85V84.14L981,76.43V10.85h54q19.29,0,19.29,19.29V34q0,15.31-12.15,18.47l16,27.81h-17.78l-15.55-27h-20.67Zm0,0H1035c2.58,0,3.86-1.28,3.86-3.85V30.14c0-2.57-1.28-3.86-3.86-3.86H996.41Z"/><path class="cls-2" d="M1083.55,10.85h57.86l-7.71,15.43h-50.15q-3.85,0-3.86,3.86V34q0,3.86,3.86,3.85h34.72q19.27,0,19.28,19.29V61q0,19.29-19.28,19.28h-57.86l7.71-15.42h50.15q3.86,0,3.85-3.86V57.14q0-3.86-3.85-3.86h-34.72q-19.29,0-19.29-19.28V30.14Q1064.26,10.85,1083.55,10.85Z"/></svg>