<svg id="Camada_1" data-name="Camada 1" xmlns="http://www.w3.org/2000/svg" viewBox="0 0 1160.85 116.98"><defs><style>.cls-1{fill:#fff;}.cls-2{fill:#231f20;}</style></defs><title>BATTLE OF POWER-01-logo</title><path class="cls-1" d="M55,10.85q19.29,0,19.29,19.29V34q0,7.09-2.62,11.57Q74.3,50,74.29,57.14V61q0,19.29-19.29,19.28H1V10.85Zm0,15.43H16.43V37.85H55c2.58,0,3.86-1.28,3.86-3.85V30.14C58.86,27.57,57.58,26.28,55,26.28ZM16.43,37.85v27H55c2.58,0,3.86-1.28,3.86-3.85V57.14c0-2.57-1.28-3.86-3.86-3.86H24.15Z"/><path class="cls-1" d="M105.07,80.28,97.51,65.16,90.45,80.28h-17L110.86,0l37.46,80.31Zm-7.4-15.43h26.38L110.86,36.54Z"/><path class="cls-1" d="M208,10.85l-7.71,15.43H175.2v54H159.77v-54H130.84V10.85Z"/><path class="cls-1" d="M287.41,10.85,279.7,26.28H254.63v54H239.2v-54H210.27V10.85Z"/><path class="cls-1" d="M305.12,64.85h50.15l-7.72,15.43H289.69V10.85h15.43Z"/><path class="cls-1" d="M434.69,10.85,427,26.28H373V37.85h54l-7.72,15.43H373V64.85h57.86V80.28H357.54V10.85Z"/><path class="cls-2" d="M627.78,10.85V26.28H569.92V37.85h57.86V53.28H569.92v27H554.49V10.85Z"/><path class="cls-2" d="M709.1,10.85q19.29,0,19.29,19.29V34q0,19.28-19.29,19.28H670.53V84.14L655.1,76.43V10.85Zm0,15.43H670.53V37.85H709.1Q713,37.85,713,34V30.14Q713,26.29,709.1,26.28Z"/><path class="cls-2" d="M752.34,10.85h34.72q19.28,0,19.28,19.29V61q0,19.29-19.28,19.28H752.34q-19.29,0-19.29-19.28V30.14Q733.05,10.85,752.34,10.85Zm34.72,15.43H752.34q-3.86,0-3.86,3.86V61q0,3.86,3.86,3.85h34.72q3.86,0,3.85-3.85V30.14Q790.91,26.29,787.06,26.28Z"/><path class="cls-2" d="M861.47,53.94,844.11,91.16,806.65,10.85H823.7l20.41,43.74,17.36-37.22,17.36,37.22,20.4-43.74h17L878.83,91.16Z"/><path class="cls-2" d="M995.71,10.85,988,26.28H934V37.85h54l-7.71,15.43H934V64.85h57.86V80.28H918.56V10.85Z"/><path class="cls-2" d="M1013.41,37.85V84.14L998,76.43V10.85h54q19.27,0,19.28,19.29V34q0,15.31-12.15,18.47l16,27.81h-17.78l-15.55-27h-20.67Zm0,0H1052q3.85,0,3.85-3.85V30.14q0-3.86-3.85-3.86h-38.58Z"/><path class="cls-2" d="M1100.55,10.85h57.86l-7.71,15.43h-50.15q-3.85,0-3.86,3.86V34q0,3.86,3.86,3.85h34.72q19.27,0,19.28,19.29V61q0,19.29-19.28,19.28h-57.86l7.71-15.43h50.15q3.86,0,3.85-3.85V57.14q0-3.86-3.85-3.86h-34.72q-19.29,0-19.29-19.28V30.14Q1081.26,10.85,1100.55,10.85Z"/><path class="cls-2" d="M521.28,52.85A26.27,26.27,0,1,1,495,26.58,26.3,26.3,0,0,1,521.28,52.85Z"/><path class="cls-1" d="M478.6,56.72a3.46,3.46,0,0,0,3.46-3.45V44.63H475.6a21,21,0,0,0-1.67,8.22,21.42,21.42,0,0,0,.36,3.87Z"/><path class="cls-1" d="M497.61,44.63v1.72a3.46,3.46,0,0,0,3.45,3.46h4.84V65.36H495a3.46,3.46,0,0,0-3.46,3.46v4.83a21.93,21.93,0,0,0,3.46.28,21.08,21.08,0,0,0,19.41-29.3Z"/><path class="cls-1" d="M478.76,39.44h8.48V53.27a8.66,8.66,0,0,1-8.64,8.64H476a21.25,21.25,0,0,0,10.4,10.17V68.82A8.65,8.65,0,0,1,495,60.18h5.7V55a8.66,8.66,0,0,1-8.3-8.64V39.44h18.85a21.06,21.06,0,0,0-32.51,0Z"/><path class="cls-1" d="M527.38,34.28,511.91,7.85l-5.86,3.44L495.79,1,485.53,11.29l-5.86-3.44L464.2,34.28a36.64,36.64,0,1,0,63.18,0Zm-6.1,18.57A26.27,26.27,0,1,1,495,26.58,26.3,26.3,0,0,1,521.28,52.85Z"/><path class="cls-1" d="M486.7,96.7a7,7,0,0,0-7,7v2.36a1.47,1.47,0,0,0,1.47,1.48h2.37a7,7,0,0,0,7-7v-.89h1.79V110a7,7,0,0,0,7,7h2.37a1.47,1.47,0,0,0,1.47-1.47v-2.36a7,7,0,0,0-7-7h-.89V93.34H497v.9a7,7,0,0,0,7,7h2.37a1.47,1.47,0,0,0,1.47-1.47V97.39a7,7,0,0,0-7-7h-5.62V87.34h-2.94V96.7Zm.89,3.84a4,4,0,0,1-4,4h-.9v-.89a4.05,4.05,0,0,1,4.05-4h.89Zm12.4-7.2h.89a4.05,4.05,0,0,1,4,4v.89H504a4,4,0,0,1-4-4Zm-4.73,15.76h.89a4.06,4.06,0,0,1,4.05,4.05V114h-.9a4.05,4.05,0,0,1-4-4.05Z"/></svg>