<?xml version="1.0" encoding="utf-8"?>
<!-- Generator: Adobe Illustrator 23.0.1, SVG Export Plug-In . SVG Version: 6.00 Build 0)  -->
<svg version="1.1" id="Capa_1" xmlns="http://www.w3.org/2000/svg" xmlns:xlink="http://www.w3.org/1999/xlink" x="0px" y="0px"
	 viewBox="0 0 497.87 497.87" style="enable-background:new 0 0 497.87 497.87;" xml:space="preserve">
<style type="text/css">
	.st0{fill:#ED1E24;}
</style>
<g>
	<g>
		<path class="st0" d="M477.55,228.62h-53.57c-9.83-80.03-74.02-143.61-154.72-153.13V20.32C269.26,9.1,260.15,0,248.94,0
			c-11.23,0-20.32,9.1-20.32,20.32v54.97C147.24,84.24,82.36,148.1,72.47,228.61H20.32C9.1,228.61,0,237.7,0,248.93
			s9.1,20.32,20.32,20.32h51.87c8.99,81.51,74.33,146.43,156.43,155.45v52.84c0,11.23,9.1,20.32,20.32,20.32
			c11.22,0,20.32-9.1,20.32-20.32v-53.02c81.42-9.61,146.05-74.22,155-155.26h53.29c11.23,0,20.32-9.1,20.32-20.32
			C497.87,237.71,488.77,228.62,477.55,228.62z M269.26,383.39v-67.03c0-11.23-9.1-20.32-20.32-20.32
			c-11.23,0-20.32,9.1-20.32,20.32v67.24c-59.61-8.55-106.75-55.3-115.31-114.35h68.21c11.23,0,20.32-9.1,20.32-20.32
			c0-11.22-9.1-20.32-20.32-20.32h-67.88c9.38-58.05,56.1-103.76,114.99-112.21v65.11c0,11.23,9.1,20.32,20.32,20.32
			c11.22,0,20.32-9.1,20.32-20.32v-64.9c58.21,8.98,104.25,54.42,113.56,112h-66.46c-11.23,0-20.32,9.1-20.32,20.32
			c0,11.23,9.1,20.32,20.32,20.32h66.79C374.65,327.84,328.19,374.3,269.26,383.39z"/>
	</g>
</g>
</svg>
