<svg id="Capa_1" data-name="Capa 1" xmlns="http://www.w3.org/2000/svg" viewBox="0 0 480 480"><defs><style>.cls-1{fill:red;}.cls-2{fill:#6a9923;}.cls-3{fill:#595959;}.cls-4{fill:#ffb446;}.cls-5{fill:#ffdc64;}.cls-6{fill:#fff;}</style></defs><title>trees-fire</title><path class="cls-1" d="M263.8,224c0-21.6-10.4-41.6-28-52.8A55.88,55.88,0,0,0,227,92.8c-9.6-8-22.4-12-35.2-12h-2.4a55.94,55.94,0,1,0-107.2-32,57.22,57.22,0,0,0,0,32.8H79.8a55.66,55.66,0,0,0-56,56,56.8,56.8,0,0,0,12,35.2C6.2,192.8-1,232,18.2,261.6a61.48,61.48,0,0,0,17.6,17.6,55.88,55.88,0,0,0,8.8,78.4c9.6,8,22.4,12,35.2,12h112a55.66,55.66,0,0,0,56-56,56.8,56.8,0,0,0-12-35.2A67.11,67.11,0,0,0,263.8,224Z"/><path class="cls-1" d="M471.8,224c0-21.6-10.4-41.6-28-52.8A55.87,55.87,0,0,0,435,92.8c-9.61-8-22.4-12-35.21-12h-2.4a55.94,55.94,0,1,0-107.2-32,57.22,57.22,0,0,0,0,32.8h-2.4a55.66,55.66,0,0,0-56,56,56.8,56.8,0,0,0,12,35.2c-29.6,20-36.8,59.2-17.6,88.8a61.48,61.48,0,0,0,17.6,17.6,55.88,55.88,0,0,0,8.8,78.4c9.6,8,22.41,12,35.2,12h112a55.65,55.65,0,0,0,56-56,56.8,56.8,0,0,0-12-35.2A67.11,67.11,0,0,0,471.8,224Z"/><path class="cls-1" d="M405.4,186.4a7.73,7.73,0,0,0-11.2,0l-42.4,42.4V112a8,8,0,0,0-16,0v56.8l-36-36A7.92,7.92,0,0,0,288.6,144l48,48V301.6l-34.4-34.4A7.92,7.92,0,0,0,291,278.4L336.6,324V472a8,8,0,0,0,16,0V250.4c.8,0,.8-.8,1.6-.8l52-52A8.54,8.54,0,0,0,405.4,186.4Z"/><path class="cls-1" d="M367.8,224c0-21.6-10.4-41.6-28-52.8A55.87,55.87,0,0,0,331,92.8c-9.61-8-22.4-12-35.21-12h-2.4a55.94,55.94,0,1,0-107.2-32,57.22,57.22,0,0,0,0,32.8h-2.4a55.66,55.66,0,0,0-56,56,56.8,56.8,0,0,0,12,35.2c-29.6,20-36.8,59.2-17.6,88.8a61.48,61.48,0,0,0,17.6,17.6,55.88,55.88,0,0,0,8.8,78.4c9.61,8,22.4,12,35.2,12h112a55.65,55.65,0,0,0,56-56,56.8,56.8,0,0,0-12-35.2A67.11,67.11,0,0,0,367.8,224Z"/><path class="cls-2" d="M301.4,186.4a7.73,7.73,0,0,0-11.2,0l-42.4,42.4V112a8,8,0,0,0-16,0v56.8l-36-36A7.92,7.92,0,1,0,184.6,144l48,48V301.6l-34.4-34.4A7.92,7.92,0,1,0,187,278.4L232.6,324V472a8,8,0,0,0,16,0V250.4c.8,0,.8-.8,1.6-.8l52-52A8.54,8.54,0,0,0,301.4,186.4Z"/><path class="cls-3" d="M375.8,480h-272a8,8,0,1,1,0-16h272a7.56,7.56,0,0,1,8,8C383.8,476.8,380.61,480,375.8,480Z"/><path d="M479.8,224c0-20.8-9.6-40.8-25.6-55.2a60.3,60.3,0,0,0,9.6-32.8c0-32.8-24-60-56.79-63.2,0-2.4.79-5.6.79-8.8a64.18,64.18,0,0,0-64-64c-20.79,0-40,9.6-52,27.2A63.15,63.15,0,0,0,203,12c-5.6,4-11.2,8.8-15.2,15.2A63.78,63.78,0,0,0,72.6,72.8C39.8,76,15.8,103.2,15.8,136a58.39,58.39,0,0,0,9.6,32.8C-5,194.4-8.2,240,17.4,270.4a37.92,37.92,0,0,0,8,8A63,63,0,0,0,15.8,312a64.19,64.19,0,0,0,64,64h48v88h-24a8,8,0,1,0,0,16h272a8,8,0,0,0,0-16h-24V376h48a64.18,64.18,0,0,0,64-64,58.39,58.39,0,0,0-9.6-32.8C470.2,264.8,479.8,244.8,479.8,224ZM239.8,16a47.8,47.8,0,0,1,44.8,30.4c.8,2.4,1.6,5.6,2.4,8.8h0a32.82,32.82,0,0,1,.8,8.8,37.37,37.37,0,0,1-2.4,13.6c-.8,2.4,0,4.8,1.6,7.2a7.28,7.28,0,0,0,6.4,3.2h2.4a48.14,48.14,0,0,1,48,48,47.53,47.53,0,0,1-10.4,29.6c-2.4,3.2-2.4,8.8,1.6,11.2h.8c25.6,17.6,32.8,52,15.2,77.6-4,6.4-9.6,11.2-15.2,15.2-4,2.4-4.8,7.2-2.4,11.2v.8a46.16,46.16,0,0,1,10.4,29.6,48.14,48.14,0,0,1-48,48h-48V250.4c.8,0,.8-.8,1.6-.8l52-52a7.92,7.92,0,0,0-11.2-11.2l-42.4,42.4V112a8,8,0,0,0-16,0v56.8l-36-36A7.92,7.92,0,1,0,184.6,144l48,48V301.6l-34.4-34.4A7.92,7.92,0,1,0,187,278.4L232.6,324v36h-48a48.14,48.14,0,0,1-48-48A47.53,47.53,0,0,1,147,282.4c2.4-3.2,2.4-8.8-1.6-11.2h-.8c-25.6-17.6-32.8-52-15.2-77.6,4-6.4,9.6-11.2,15.2-15.2,4-2.4,4.8-7.2,2.4-11.2v-.8A47.54,47.54,0,0,1,135.8,136a48.14,48.14,0,0,1,48-48h2.4a7.28,7.28,0,0,0,6.4-3.2c1.6-2.4,2.4-4.8,1.6-7.2A37.37,37.37,0,0,1,191.8,64a32.82,32.82,0,0,1,.8-8.8h0c.8-3.2,1.6-5.6,2.4-8.8A47.81,47.81,0,0,1,239.8,16Zm-208,296a47.53,47.53,0,0,1,10.4-29.6c2.4-3.2,2.4-8.8-1.6-11.2h-.8c-25.6-17.6-32.8-52-15.2-77.6,4-6.4,9.6-11.2,15.2-15.2,4-2.4,4.8-7.2,2.4-11.2v-.8c-6.4-8.8-10.4-19.2-10.4-30.4a48.14,48.14,0,0,1,48-48h2.4a7.28,7.28,0,0,0,6.4-3.2c1.6-2.4,2.4-4.8,1.6-7.2a48.85,48.85,0,0,1,32.8-60,48.2,48.2,0,0,1,56.8,25.6h0c-.8,3.2-1.6,6.4-2.4,8.8v1.6a64.83,64.83,0,0,0,0,17.6c-33.6,4.8-57.6,32-57.6,64.8a58.39,58.39,0,0,0,9.6,32.8h-.8L91,131.2a7.92,7.92,0,0,0-11.2,11.2l37.6,37.6a72.12,72.12,0,0,0,11.2,97.6,57.74,57.74,0,0,0-7.2,16l-28.8-28.8A7.92,7.92,0,1,0,81.41,276L119,313.6v5.6c0,1.6.8,3.2.8,4s.8,1.6.8,2.4c0,1.6.8,2.4.8,4,0,.8.8,1.6.8,2.4.8.8.8,2.4,1.6,3.2,0,.8.8,1.6,1.6,2.4s.8,2.4,1.6,3.2.8,1.6,1.6,2.4a6.06,6.06,0,0,1,1.6,3.2c.8.8.8,1.6,1.6,2.4l2.4,2.4c.8.8,1.6,1.6,1.6,2.4l2.4,2.4,1.6,1.6h-60C53.4,360,31.81,338.4,31.81,312Zm112,64h88v88h-88Zm192,88h-88V376h88ZM439,270.4c-4,2.4-4.8,7.2-2.4,11.2v.8A46.16,46.16,0,0,1,447,312a48.15,48.15,0,0,1-48,48H337.4c.8,0,.8-.8,1.61-1.6l2.39-2.4c.8-.8,1.61-1.6,1.61-2.4l2.39-2.4c.8-.8.8-1.6,1.61-2.4a4.19,4.19,0,0,0,1.6-3.2c.79-.8.79-1.6,1.6-2.4s.8-2.4,1.6-3.2.8-1.6,1.6-2.4.8-2.4,1.6-3.2c0-.8.8-1.6.8-2.4a7.21,7.21,0,0,0,.8-4c0-.8.79-1.6.79-2.4,0-1.6.8-3.2.8-4V312a58.39,58.39,0,0,0-9.6-32.8A70,70,0,0,0,373.4,228L403,198.4a7.92,7.92,0,0,0-11.2-11.2L371,208c-3.2-14.4-12-28-23.2-37.6,6.4-9.6,9.6-21.6,9.6-33.6,0-32.8-24-60-56.8-63.2a64.83,64.83,0,0,0,0-17.6V54.4c-.8-3.2-1.6-6.4-2.4-8.8h0a47.28,47.28,0,0,1,64-22.4A48.19,48.19,0,0,1,387.8,80c-.79,2.4,0,4.8,1.6,7.2a7.29,7.29,0,0,0,6.4,3.2h2.4a48.14,48.14,0,0,1,48,48A47.53,47.53,0,0,1,435.8,168c-2.4,3.2-2.4,8.8,1.6,11.2h.8c25.6,17.6,32.8,52,15.2,77.6A47.45,47.45,0,0,1,439,270.4Z"/><path class="cls-4" d="M33.91,390.22a77.62,77.62,0,0,0,77.62,77.62h0a77.62,77.62,0,0,0,77.62-77.62c0-43.13-21.56-77.62-7.09-107.81,0,0-23.09,4.31-36,38.81,0,0-43.12-43.12-25.11-103.49,0,0-43.89,17.25-39.3,73.31,3.94,48.07-4.59,56-4.59,56a66.18,66.18,0,0,0-30.34-56C55.47,338.47,33.91,351.41,33.91,390.22Z"/><path class="cls-5" d="M167.56,408.6c0,32.29-24.93,59.85-57.21,59.23-30.38-.59-53-23.7-50.56-53.9,1.07-13.47,11.31-35.3,28-57.4L99,363.27c-.36-27.31,12.58-63.61,12.58-63.61C120,337.9,167.56,347.81,167.56,408.6Z"/><path class="cls-6" d="M90,381.59C85.66,407.47,77,416.89,77,433.34c0,17.25,15.45,34.5,34.5,34.5h0A34.61,34.61,0,0,0,146,433c-.15-51.54-30.19-77.25-30.19-77.25,4.32,25.87-8.62,38.81-8.62,38.81C101.83,386.45,90,381.59,90,381.59Z"/><path class="cls-4" d="M170.18,390.22a77.62,77.62,0,0,0,77.62,77.62h0a77.63,77.63,0,0,0,77.63-77.62c0-43.13-21.57-77.62-7.1-107.81,0,0-23.09,4.31-36,38.81,0,0-43.12-43.12-25.1-103.49,0,0-43.89,17.25-39.3,73.31,3.93,48.07-4.59,56-4.59,56A66.18,66.18,0,0,0,183,291C191.75,338.47,170.18,351.41,170.18,390.22Z"/><path class="cls-5" d="M303.83,408.6c0,32.29-24.93,59.85-57.21,59.23-30.37-.59-53-23.7-50.56-53.9,1.08-13.47,11.32-35.3,28-57.4l11.14,6.74c-.36-27.31,12.57-63.61,12.57-63.61C256.3,337.9,303.83,347.81,303.83,408.6Z"/><path class="cls-6" d="M226.24,381.59c-4.31,25.88-12.93,35.3-12.93,51.75,0,17.25,15.44,34.5,34.49,34.5h0A34.6,34.6,0,0,0,282.3,433c-.14-51.54-30.18-77.25-30.18-77.25,4.31,25.87-8.63,38.81-8.63,38.81C238.1,386.45,226.24,381.59,226.24,381.59Z"/><path class="cls-4" d="M306.18,390.22a77.62,77.62,0,0,0,77.62,77.62h0a77.63,77.63,0,0,0,77.63-77.62c0-43.13-21.57-77.62-7.1-107.81,0,0-23.09,4.31-36,38.81,0,0-43.12-43.12-25.1-103.49,0,0-43.89,17.25-39.3,73.31,3.93,48.07-4.59,56-4.59,56A66.18,66.18,0,0,0,319,291C327.75,338.47,306.18,351.41,306.18,390.22Z"/><path class="cls-5" d="M439.83,408.6c0,32.29-24.93,59.85-57.21,59.23-30.37-.59-53-23.7-50.56-53.9,1.08-13.47,11.32-35.3,28-57.4l11.14,6.74c-.36-27.31,12.57-63.61,12.57-63.61C392.3,337.9,439.83,347.81,439.83,408.6Z"/><path class="cls-6" d="M362.24,381.59c-4.31,25.88-12.93,35.3-12.93,51.75,0,17.25,15.44,34.5,34.49,34.5h0A34.6,34.6,0,0,0,418.3,433c-.14-51.54-30.18-77.25-30.18-77.25,4.31,25.87-8.63,38.81-8.63,38.81C374.1,386.45,362.24,381.59,362.24,381.59Z"/></svg>